<?xml version="1.0" encoding="utf-8"?>
<!-- Generator: Adobe Illustrator 22.0.1, SVG Export Plug-In . SVG Version: 6.00 Build 0)  -->
<svg version="1.1" id="Layer_1" xmlns="http://www.w3.org/2000/svg" xmlns:xlink="http://www.w3.org/1999/xlink" x="0px" y="0px"
	 viewBox="0 0 280 165" enable-background="new 0 0 280 165" xml:space="preserve">
<path fill="#F3F4F4" d="M-163.314,88.204l326.582-326.582L480.254,78.609L153.672,405.191L-163.314,88.204z"/>
<path fill="#83CDAC" d="M180.113,119.055l33.649-33.649l47.722,47.722l-33.65,33.649L180.113,119.055z"/>
<path fill="#F3F4F4" d="M180.61,51.092l56.458-56.458l34.314,34.314l-56.458,56.458L180.61,51.092z"/>
<path fill="#8AD0FF" d="M17.93,139.459l45.932-45.932l36.231,36.231L54.161,175.69L17.93,139.459z"/>
<path fill="#83CDAC" d="M236.706,63.189l51.685-51.685l24.601,24.601L261.307,87.79L236.706,63.189z"/>
<g>
	<path fill="#ECECEC" d="M73.336,84.398l1.414-1.414l200.575,200.575l-1.414,1.414L73.336,84.398z"/>
	<path fill="#ECECEC" d="M168.306,63.936l1.414-1.414l33.47,33.47l-1.414,1.414L168.306,63.936z"/>
	<path fill="#ECECEC" d="M123.968-199.119l1.414-1.414l317.011,317.011l-1.414,1.414L123.968-199.119z"/>
	<path fill="#ECECEC" d="M-78.043,2.886l1.414-1.414L38.436,116.537l-1.414,1.414L-78.043,2.886z"/>
	<path fill="#ECECEC" d="M41.018,292.597l156.98-156.981l1.414,1.414L42.432,294.011L41.018,292.597z"/>
	<path fill="#ECECEC" d="M175.086,300.368L438.547,36.907l1.414,1.414L176.5,301.782L175.086,300.368z"/>
	<path fill="#ECECEC" d="M96.279,347.859L422.891,21.247l1.414,1.414L97.694,349.273L96.279,347.859z"/>
	<path fill="#ECECEC" d="M209.643,23.695l1.414-1.414l33.28,33.28l-1.414,1.414L209.643,23.695z"/>
	<path fill="#ECECEC" d="M-18.433-56.724l1.414-1.414l95.747,95.747l-1.414,1.414L-18.433-56.724z"/>
	<path fill="#ECECEC" d="M-65.023-10.136l1.414-1.414l76.394,76.394l-1.414,1.414L-65.023-10.136z"/>
</g>
<path fill="#FFFFFF" d="M-69.364,182.227l326.648-326.648l3.535,3.535L-65.829,185.762L-69.364,182.227z"/>
<path fill="#FFFFFF" d="M22.391,273.97l326.64-326.64l3.535,3.535l-326.64,326.64L22.391,273.97z"/>
<path fill="#ECECEC" d="M9.125,260.702L199.12,70.706l1.414,1.414L10.539,262.116L9.125,260.702z"/>
<path fill="#ECECEC" d="M-87.688,163.914L238.966-162.74l1.414,1.414L-86.274,165.328L-87.688,163.914z"/>
<path fill="#ECECEC" d="M90.084,115.51l43.808-43.808l1.414,1.414l-43.808,43.808L90.084,115.51z"/>
<path fill="#FFFFFF" d="M48.599,300.152l326.62-326.619l3.535,3.535L52.134,303.687L48.599,300.152z"/>
<path fill="#93D8B7" d="M207.068,141.339l28.47-28.469l3.897,3.897l-28.47,28.469L207.068,141.339z"/>
<path fill="#FFFFFF" d="M128.021,69.365l3.535-3.535l180.749,180.749l-3.535,3.535L128.021,69.365z"/>
<path fill="#FFFFFF" d="M23.794-98.963l5.657-5.657l317.017,317.017l-5.657,5.657L23.794-98.963z"/>
<path fill="#FFFFFF" d="M104.759,81.878c-9.793,0-17.894-3.996-22.398-7.789l-0.252-0.231L-33.461-41.713l5.657-5.656L87.623,68.058
	c1.761,1.401,20.604,15.461,42.108-6.039l167-167.001l5.657,5.656l-167,167.001C124.743,78.32,113.998,81.878,104.759,81.878
	L104.759,81.878z"/>
<path fill="#FFFFFF" d="M236.132,64.994l3.535-3.535l128.88,128.88l-3.535,3.535L236.132,64.994z"/>
<path fill="#FEE379" d="M-51.009,200.582l326.602-326.695l5.658,5.656L-45.351,206.238L-51.009,200.582z"/>
<path fill="#FEE379" d="M-126.899,124.696l326.602-326.695l5.658,5.656l-326.602,326.695L-126.899,124.696z"/>
<path fill="#FEE379" d="M69.996,321.581L396.598-5.114l5.658,5.656L75.653,327.237L69.996,321.581z"/>
<path fill="#FFFFFF" d="M-11.713,239.881L314.936-86.768l3.535,3.535L-8.178,243.415L-11.713,239.881z"/>
<path fill="#FEE379" d="M-55.806-19.366l5.657-5.657l317.017,317.017l-5.657,5.657L-55.806-19.366z"/>
<path fill="#FEE379" d="M-103.454,28.281l5.657-5.657L219.22,339.641l-5.657,5.657L-103.454,28.281z"/>
<circle fill="#FEE379" cx="84.49" cy="70.703" r="13.053"/>
<circle fill="#FFFFFF" cx="84.49" cy="70.703" r="4.473"/>
<path fill="#FEE379" d="M76.084,67.833L-33.461-41.713l5.657-5.656L81.598,62.033L76.084,67.833z"/>
<g>
	<path fill="#E44746" d="M157.428,76.01c0-10.264-8.873-18.455-19.366-17.322c-8.287,0.894-14.642,7.359-15.41,15.659
		c-0.509,5.266,1.408,10.477,5.208,14.158c1.413,1.372,2.729,2.842,3.937,4.398c3.4,4.376,5.68,9.514,6.885,14.922l0.982,4.404
		h0.673l1.02-4.568c1.185-5.32,3.395-10.392,6.724-14.708c1.162-1.511,2.444-2.926,3.833-4.231
		C155.437,85.433,157.434,80.829,157.428,76.01"/>
	<path fill="#FFFFFF" d="M145.403,77.381c0,2.984-2.419,5.402-5.403,5.402s-5.402-2.419-5.402-5.403s2.419-5.402,5.402-5.402
		S145.403,74.396,145.403,77.381"/>
</g>
<path fill="#FEE379" d="M109.642-184.808l5.657-5.657l317.017,317.017l-5.657,5.657L109.642-184.808z"/>
</svg>
